<?xml version="1.0" encoding="UTF-8" standalone="no"?>
<svg
   xmlns:dc="http://purl.org/dc/elements/1.1/"
   xmlns:cc="http://creativecommons.org/ns#"
   xmlns:rdf="http://www.w3.org/1999/02/22-rdf-syntax-ns#"
   xmlns:svg="http://www.w3.org/2000/svg"
   xmlns="http://www.w3.org/2000/svg"
   xmlns:sodipodi="http://sodipodi.sourceforge.net/DTD/sodipodi-0.dtd"
   xmlns:inkscape="http://www.inkscape.org/namespaces/inkscape"
   version="1.1"
   x="0px"
   y="0px"
   viewBox="0 0 99.999998 100"
   enable-background="new 0 0 83.955 100"
   xml:space="preserve"
   id="svg8"
   sodipodi:docname="child-white.svg"
   width="100"
   height="100"
   inkscape:version="0.92.3 (2405546, 2018-03-11)"><metadata
     id="metadata14"><rdf:RDF><cc:Work
         rdf:about=""><dc:format>image/svg+xml</dc:format><dc:type
           rdf:resource="http://purl.org/dc/dcmitype/StillImage" /><dc:title></dc:title></cc:Work></rdf:RDF></metadata><defs
     id="defs12" /><sodipodi:namedview
     pagecolor="#ffffff"
     bordercolor="#666666"
     borderopacity="1"
     objecttolerance="10"
     gridtolerance="10"
     guidetolerance="10"
     inkscape:pageopacity="0"
     inkscape:pageshadow="2"
     inkscape:window-width="1487"
     inkscape:window-height="811"
     id="namedview10"
     showgrid="false"
     inkscape:zoom="4.3414147"
     inkscape:cx="41.813729"
     inkscape:cy="54.56337"
     inkscape:window-x="47"
     inkscape:window-y="47"
     inkscape:window-maximized="0"
     inkscape:current-layer="svg8" /><g
     id="g4756"
     transform="matrix(0.89830309,0,0,0.89830309,10.892451,5.5084711)"
     style="fill:#ffffff;fill-opacity:1"><path
       id="path2"
       d="M 31.271,25.109 C 38.202,25.101 43.826,19.481 43.826,12.554 43.826,5.607 38.203,-0.016 31.271,0 24.331,-0.017 18.709,5.607 18.714,12.554 18.709,19.482 24.33,25.102 31.271,25.109 Z"
       inkscape:connector-curvature="0"
       style="fill:#ffffff;fill-opacity:1" /><path
       id="path4"
       d="M 65.709,87.561 C 65.669,87.49 65.614,87.434 65.57,87.366 l 0.021,-0.012 c 0,0 -8.643,-11.87 -21.013,-28.706 L 44.431,51.381 V 41.7 L 54.87,52.136 c 4.187,4.441 10.572,-1.494 6.198,-5.848 L 44.078,29.246 c -1.396,-1.368 -2.994,-2.203 -5.346,-2.221 h -7.463 -7.615 c -2.381,0.019 -3.874,0.879 -5.244,2.221 L 1.62,46.086 c -4.606,4.612 1.61,10.491 6.203,5.898 L 17.959,41.748 v 9.633 5.65 10e-4 c -2.684,22.536 -4.54,38.743 -4.54,38.743 h 0.024 c -0.005,0.08 -0.024,0.155 -0.024,0.237 0,2.202 1.785,3.986 3.987,3.986 1.908,0 3.499,-1.342 3.89,-3.133 h 0.005 l 2.731,-11.037 v 0 c 2.542,-10.085 4.527,-18.745 4.527,-18.745 l 6.302,-0.671 c -0.004,0.008 -0.008,0.019 -0.008,0.019 l 3.422,3.422 c 0,0 6.042,6.605 13.259,14.161 l 7.702,8.133 c 0.003,0.003 0.006,0.006 0.008,0.009 l 0.028,0.029 0.002,-0.001 c 1.225,1.367 3.271,1.752 4.93,0.811 1.92,-1.085 2.59,-3.518 1.505,-5.434 z"
       inkscape:connector-curvature="0"
       style="fill:#ffffff;fill-opacity:1" /><circle
       id="circle6"
       r="9.96"
       cy="72.889999"
       cx="73.996002"
       style="fill:#ffffff;fill-opacity:1" /></g></svg>