<?xml version="1.0" encoding="UTF-8" standalone="no"?>
<svg
   xmlns:dc="http://purl.org/dc/elements/1.1/"
   xmlns:cc="http://creativecommons.org/ns#"
   xmlns:rdf="http://www.w3.org/1999/02/22-rdf-syntax-ns#"
   xmlns:svg="http://www.w3.org/2000/svg"
   xmlns="http://www.w3.org/2000/svg"
   xmlns:sodipodi="http://sodipodi.sourceforge.net/DTD/sodipodi-0.dtd"
   xmlns:inkscape="http://www.inkscape.org/namespaces/inkscape"
   version="1.1"
   x="0px"
   y="0px"
   viewBox="0 0 80 80"
   enable-background="new 0 0 80 80"
   xml:space="preserve"
   id="svg8"
   sodipodi:docname="elder-white.svg"
   inkscape:version="0.92.3 (2405546, 2018-03-11)"><metadata
     id="metadata14"><rdf:RDF><cc:Work
         rdf:about=""><dc:format>image/svg+xml</dc:format><dc:type
           rdf:resource="http://purl.org/dc/dcmitype/StillImage" /><dc:title /></cc:Work></rdf:RDF></metadata><defs
     id="defs12" /><sodipodi:namedview
     pagecolor="#ffffff"
     bordercolor="#666666"
     borderopacity="1"
     objecttolerance="10"
     gridtolerance="10"
     guidetolerance="10"
     inkscape:pageopacity="0"
     inkscape:pageshadow="2"
     inkscape:window-width="1301"
     inkscape:window-height="1017"
     id="namedview10"
     showgrid="false"
     inkscape:zoom="2.9880363"
     inkscape:cx="40.387932"
     inkscape:cy="-14.464412"
     inkscape:window-x="47"
     inkscape:window-y="47"
     inkscape:window-maximized="0"
     inkscape:current-layer="svg8" /><g
     id="g6"
     style="fill:#ffffff;fill-opacity:1"
     transform="matrix(1.1596109,0,0,1.1596109,-6.2934351,-6.2172604)"><path
       d="m 56.758,29.958 c -1.461,-6.683 -4.793,-10.125 -6.5,-11.686 -1.715,-1.567 -5.222,-0.182 -6.975,1.57 -1.339,1.339 -2.737,2.66 -2.836,4.818 l -4.311,4.311 H 24.953 c -1.452,0 -2.629,1.177 -2.629,2.629 0,1.376 1.062,2.494 2.41,2.607 V 70.31 c 0,1.21 0.98,2.19 2.191,2.19 1.21,0 2.191,-0.98 2.191,-2.19 V 34.231 h 8.107 c 10e-4,0 10e-4,0 0.002,0 0.174,0 0.347,-0.018 0.518,-0.052 0.052,-0.01 0.1,-0.031 0.15,-0.044 0.116,-0.031 0.233,-0.061 0.344,-0.107 0.046,-0.02 0.087,-0.048 0.132,-0.069 0.11,-0.053 0.219,-0.106 0.323,-0.175 0.018,-0.012 0.033,-0.028 0.05,-0.041 0.119,-0.085 0.236,-0.174 0.343,-0.281 l 2.88,-2.881 c 1.784,5.272 4.604,13.434 4.604,15.3 v 23.115 c 0,1.936 1.569,3.505 3.506,3.505 1.936,0 3.506,-1.569 3.506,-3.505 V 53.622 c 0,-1.9 1.717,-3.981 2.957,-8.145 1.241,-4.163 1.681,-8.836 0.22,-15.519 z"
       id="path2"
       style="fill:#ffffff;fill-opacity:1"
       inkscape:connector-curvature="0" /><circle
       cx="39.632"
       cy="12.978"
       r="5.4770002"
       id="circle4"
       style="fill:#ffffff;fill-opacity:1" /></g></svg>