<?xml version="1.0" encoding="UTF-8" standalone="no"?>
<svg
   xmlns:dc="http://purl.org/dc/elements/1.1/"
   xmlns:cc="http://creativecommons.org/ns#"
   xmlns:rdf="http://www.w3.org/1999/02/22-rdf-syntax-ns#"
   xmlns:svg="http://www.w3.org/2000/svg"
   xmlns="http://www.w3.org/2000/svg"
   xmlns:sodipodi="http://sodipodi.sourceforge.net/DTD/sodipodi-0.dtd"
   xmlns:inkscape="http://www.inkscape.org/namespaces/inkscape"
   version="1.1"
   x="0px"
   y="0px"
   viewBox="0 0 20 20"
   enable-background="new 0 0 20 20"
   xml:space="preserve"
   id="svg8"
   sodipodi:docname="home-white.svg"
   inkscape:version="0.92.3 (2405546, 2018-03-11)"><metadata
     id="metadata14"><rdf:RDF><cc:Work
         rdf:about=""><dc:format>image/svg+xml</dc:format><dc:type
           rdf:resource="http://purl.org/dc/dcmitype/StillImage" /><dc:title></dc:title></cc:Work></rdf:RDF></metadata><defs
     id="defs12" /><sodipodi:namedview
     pagecolor="#ffffff"
     bordercolor="#666666"
     borderopacity="1"
     objecttolerance="10"
     gridtolerance="10"
     guidetolerance="10"
     inkscape:pageopacity="0"
     inkscape:pageshadow="2"
     inkscape:window-width="1709"
     inkscape:window-height="827"
     id="namedview10"
     showgrid="false"
     inkscape:zoom="31.435937"
     inkscape:cx="10"
     inkscape:cy="10"
     inkscape:window-x="47"
     inkscape:window-y="47"
     inkscape:window-maximized="0"
     inkscape:current-layer="svg8" /><g
     id="g6"
     transform="matrix(0.89343407,0,0,0.89343407,1.0470294,1.1769969)"
     style="fill:#ffffff;fill-opacity:1"><path
       d="M 19.6,6.2 18,5.2 V 0.4 C 18,0.2 17.8,0 17.6,0 H 14.4 C 14.2,0 14,0.2 14,0.4 V 2.5 L 10.6,0.2 C 10.3,0 9.8,0 9.5,0.2 l -9,6 C 0,6.5 -0.1,7.1 0.2,7.6 0.5,8 1.1,8.1 1.6,7.8 L 10,2.2 18.4,7.8 c 0.7,0.4 1.2,0 1.4,-0.3 0.3,-0.4 0.2,-1 -0.2,-1.3 z"
       id="path2"
       inkscape:connector-curvature="0"
       style="fill:#ffffff;fill-opacity:1" /><path
       d="M 10.2,4.8 C 10.1,4.7 9.9,4.7 9.8,4.8 l -7.6,5 C 2.1,9.9 2,10 2,10.2 v 9.4 C 2,19.8 2.2,20 2.4,20 H 6.6 C 6.8,20 7,19.8 7,19.6 V 16.2 C 7,14.6 8.2,13.1 9.8,13 11.5,12.9 13,14.3 13,16 v 3.6 c 0,0.2 0.2,0.4 0.4,0.4 h 4.2 C 17.8,20 18,19.8 18,19.6 V 10.2 C 18,10.1 17.9,9.9 17.8,9.9 Z"
       id="path4"
       inkscape:connector-curvature="0"
       style="fill:#ffffff;fill-opacity:1" /></g></svg>