<?xml version="1.0" encoding="UTF-8" standalone="no"?>
<!-- Generated by IcoMoon.io -->

<svg
   xmlns:dc="http://purl.org/dc/elements/1.1/"
   xmlns:cc="http://creativecommons.org/ns#"
   xmlns:rdf="http://www.w3.org/1999/02/22-rdf-syntax-ns#"
   xmlns:svg="http://www.w3.org/2000/svg"
   xmlns="http://www.w3.org/2000/svg"
   xmlns:sodipodi="http://sodipodi.sourceforge.net/DTD/sodipodi-0.dtd"
   xmlns:inkscape="http://www.inkscape.org/namespaces/inkscape"
   version="1.1"
   width="32"
   height="32"
   viewBox="0 0 32 32"
   id="svg2"
   inkscape:version="0.91 r13725"
   sodipodi:docname="kununu-blue.svg">
  <metadata
     id="metadata12">
    <rdf:RDF>
      <cc:Work
         rdf:about="">
        <dc:format>image/svg+xml</dc:format>
        <dc:type
           rdf:resource="http://purl.org/dc/dcmitype/StillImage" />
        <dc:title>facebook2</dc:title>
      </cc:Work>
    </rdf:RDF>
  </metadata>
  <defs
     id="defs10" />
  <sodipodi:namedview
     pagecolor="#ffffff"
     bordercolor="#666666"
     borderopacity="1"
     objecttolerance="10"
     gridtolerance="10"
     guidetolerance="10"
     inkscape:pageopacity="0"
     inkscape:pageshadow="2"
     inkscape:window-width="1875"
     inkscape:window-height="1056"
     id="namedview8"
     showgrid="false"
     inkscape:zoom="14.75"
     inkscape:cx="15.668292"
     inkscape:cy="19.188378"
     inkscape:window-x="45"
     inkscape:window-y="47"
     inkscape:window-maximized="1"
     inkscape:current-layer="svg2"
     fit-margin-top="0"
     fit-margin-left="0"
     fit-margin-right="0"
     fit-margin-bottom="0" />
  <title
     id="title4">facebook2</title>
  <style
     id="style4192"
     type="text/css">
	.st0{fill:#268F8A;}
</style>
  <path
     id="path4194"
     d="m 30.494903,0.16057804 -28.8543005,0 c -0.81748075,0 -1.479914,0.66243324 -1.479914,1.47991396 l 0,28.85461 c 0,0.817171 0.66243325,1.479914 1.479914,1.479914 l 28.8543005,0 c 0.817171,0 1.479914,-0.662589 1.479914,-1.479914 l 0,-28.8544552 c 0,-0.81748075 -0.662589,-1.48006876 -1.479914,-1.48006876 z m -9.518861,24.02260696 -0.06561,4.10752 c 0,0.360848 -0.298645,0.657791 -0.67342,0.657791 l -4.032626,0 c -0.369515,0 -0.671718,-0.296788 -0.671718,-0.657791 l 0,-4.10752 -0.01593,0 0,-1.326879 c 0,-1.429469 -1.193339,-2.592479 -2.655613,-2.592479 l -1.424982,0 c -1.4655242,0 -2.6551494,1.16301 -2.6551494,2.592479 l -0.028162,0 0,5.434399 c 0,0.360848 -0.3006559,0.657791 -0.6734197,0.657791 l -4.034638,0 c -0.3710616,0 -0.6717175,-0.296788 -0.6717175,-0.657791 l 0,-24.4467442 c 0,-0.3599205 0.3006559,-0.6568627 0.6717175,-0.6568627 l 4.034638,0 c 0.3727638,0 0.6734197,0.2969422 0.6734197,0.6568627 l 0,11.5378832 C 9.5942896,15.094495 10.495947,14.93465 11.43629,14.93465 l 1.364944,0 0,-0.01593 c 1.467226,0 2.657006,-1.163165 2.657006,-2.58954 l 0.0851,-1.329355 c 0.05462,-0.309476 0.328663,-0.545606 0.661041,-0.545606 l 4.032625,0 c 0.33408,0 0.608121,0.23613 0.662743,0.545606 l 0.01764,0 0,1.329355 c 0,2.002774 -0.767346,3.83255 -2.027686,5.229215 1.294228,1.406258 2.086177,3.262186 2.086177,5.298228 1.54e-4,-1.54e-4 1.54e-4,1.326569 1.54e-4,1.326569 z M 25.601314,8.7092322 24.611919,9.6755706 c -0.509087,0.4984104 -1.331829,0.5038274 -1.841845,0.0059 l -0.16263,-0.1587599 c -0.508159,-0.4963996 -0.502588,-1.3007276 0.0076,-1.7969724 l 0.922547,-0.9021224 0.06128,-0.059109 c 0.132456,-0.1302893 0.351256,-0.1302893 0.483402,0 l 0.125028,0.1220884 c 0.132147,0.1293608 0.144061,0.3452204 0.01067,0.475974 l -0.987228,0.9627796 c -0.167891,0.1626297 -0.167891,0.4280053 0,0.5900159 l 0.16263,0.1592254 c 0.165878,0.1623197 0.440538,0.1658791 0.606108,0.00341 L 24.986667,8.113209 c 0.133693,-0.1292063 0.352029,-0.1239452 0.485568,0.00541 l 0.123635,0.1237903 c 0.134622,0.129361 0.137872,0.3379478 0.0054,0.4668446 z m 0,-3.9512342 -0.124873,0.1213146 c -0.13261,0.1292062 -0.355434,0.1398831 -0.487735,0.00975 l -0.985061,-0.965257 c -0.167891,-0.1620107 -0.439146,-0.1620107 -0.606109,0 l -0.162629,0.1587611 c -0.165725,0.1626297 -0.168665,0.4318737 -0.0032,0.5943486 l 0.987539,0.9624702 c 0.133383,0.1312178 0.12673,0.3432088 -0.0068,0.4725698 l -0.123524,0.1231714 c -0.133539,0.1292062 -0.346459,0.1350863 -0.477986,0.00372 L 22.620596,5.2743586 C 22.110116,4.7779592 22.10501,3.9736312 22.615196,3.4753749 l 0.16263,-0.1584516 c 0.508005,-0.4962447 1.330746,-0.4908289 1.839679,0.00758 l 0.923476,0.9016583 0.0605,0.059265 c 0.132301,0.1290515 0.132301,0.3415067 -1.55e-4,0.4725697 z m 3.509457,4.7609784 -0.160463,0.1565942 c -0.510171,0.4984104 -1.333996,0.4931504 -1.841845,-0.00538 l -0.92456,-0.9019676 -0.0605,-0.058955 c -0.133538,-0.1288967 -0.133538,-0.3410425 0,-0.4719508 l 0.124874,-0.1224299 c 0.132301,-0.128742 0.35435,-0.1400378 0.486651,-0.00913 l 0.988311,0.9647912 c 0.165725,0.1626293 0.438063,0.1626293 0.603943,0 l 0.162629,-0.158295 c 0.168046,-0.164796 0.170212,-0.4318738 0.0033,-0.5943486 L 27.50552,7.3532633 C 27.372136,7.2242118 27.37879,7.0122208 27.51212,6.8806935 L 27.637019,6.759379 c 0.133694,-0.129361 0.345375,-0.1347768 0.477986,-0.00557 l 0.989268,0.9668022 c 0.510326,0.4962447 0.515742,1.3005726 0.0065,1.7983651 z m 0.0032,-4.2368809 -0.924714,0.9016583 -0.06128,0.059265 c -0.133539,0.1285873 -0.349088,0.1285873 -0.482318,0 L 27.519601,6.1190732 C 27.387455,5.990486 27.377552,5.7740076 27.510008,5.6446467 l 0.988311,-0.9643272 c 0.165724,-0.1626296 0.165724,-0.4264578 0,-0.5883137 L 28.335689,3.9316972 C 28.16981,3.770615 27.894222,3.7673655 27.728342,3.9298404 L 26.741269,4.8923106 C 26.607575,5.0236831 26.38924,5.016101 26.256785,4.8868906 L 26.131911,4.7652666 C 25.99961,4.6338941 25.994039,4.4268546 26.126611,4.2984221 l 0.988176,-0.968505 c 0.509242,-0.4960899 1.332758,-0.5015057 1.842155,-0.00526 l 0.161237,0.1579875 c 0.510481,0.49903 0.504137,1.3032032 -0.0041,1.7994479 z"
     class="st0"
     inkscape:connector-curvature="0"
     style="fill:#002f55;fill-opacity:1" />
</svg>
