<?xml version="1.0" encoding="UTF-8" standalone="no"?>
<!-- Generated by IcoMoon.io -->

<svg
   xmlns:dc="http://purl.org/dc/elements/1.1/"
   xmlns:cc="http://creativecommons.org/ns#"
   xmlns:rdf="http://www.w3.org/1999/02/22-rdf-syntax-ns#"
   xmlns:svg="http://www.w3.org/2000/svg"
   xmlns="http://www.w3.org/2000/svg"
   xmlns:sodipodi="http://sodipodi.sourceforge.net/DTD/sodipodi-0.dtd"
   xmlns:inkscape="http://www.inkscape.org/namespaces/inkscape"
   version="1.1"
   width="32"
   height="32"
   viewBox="0 0 32 32"
   id="svg2"
   inkscape:version="0.91 r13725"
   sodipodi:docname="linkedin-blue.svg">
  <metadata
     id="metadata12">
    <rdf:RDF>
      <cc:Work
         rdf:about="">
        <dc:format>image/svg+xml</dc:format>
        <dc:type
           rdf:resource="http://purl.org/dc/dcmitype/StillImage" />
        <dc:title>facebook2</dc:title>
      </cc:Work>
    </rdf:RDF>
  </metadata>
  <defs
     id="defs10" />
  <sodipodi:namedview
     pagecolor="#ffffff"
     bordercolor="#666666"
     borderopacity="1"
     objecttolerance="10"
     gridtolerance="10"
     guidetolerance="10"
     inkscape:pageopacity="0"
     inkscape:pageshadow="2"
     inkscape:window-width="963"
     inkscape:window-height="844"
     id="namedview8"
     showgrid="false"
     inkscape:zoom="7.375"
     inkscape:cx="16.135593"
     inkscape:cy="16.135593"
     inkscape:window-x="55"
     inkscape:window-y="47"
     inkscape:window-maximized="0"
     inkscape:current-layer="svg2"
     fit-margin-top="0"
     fit-margin-left="0"
     fit-margin-right="0"
     fit-margin-bottom="0" />
  <title
     id="title4">facebook2</title>
  <path
     id="path4163"
     d="M 29,0 3,0 C 1.35,0 0,1.35 0,3 l 0,26 c 0,1.65 1.35,3 3,3 l 26,0 c 1.65,0 3,-1.35 3,-3 L 32,3 C 32,1.35 30.65,0 29,0 Z m -17,26 -3.9999998,0 0,-14 L 12,12 12,26 Z M 10,9.9999996 C 8.8940002,9.9999996 8.0000002,9.106 8.0000002,8 c 0,-1.106 0.894,-2 1.9999998,-2 1.106,0 2,0.894 2,2 0,1.106 -0.894,1.9999996 -2,1.9999996 z M 26,26 l -4,0 0,-8 c 0,-1.106 -0.894,-2 -2,-2 -1.106,0 -2,0.894 -2,2 l 0,8 -4,0 0,-14 4,0 0,2.481 C 18.825,13.35 20.087,12 21.5,12 c 2.488,0 4.5,2.238 4.5,5 l 0,9 z"
     inkscape:connector-curvature="0"
     style="fill:#002f55;fill-opacity:1" />
</svg>
