<?xml version="1.0" encoding="UTF-8" standalone="no"?>
<!-- Generated by IcoMoon.io -->

<svg
   xmlns:dc="http://purl.org/dc/elements/1.1/"
   xmlns:cc="http://creativecommons.org/ns#"
   xmlns:rdf="http://www.w3.org/1999/02/22-rdf-syntax-ns#"
   xmlns:svg="http://www.w3.org/2000/svg"
   xmlns="http://www.w3.org/2000/svg"
   xmlns:sodipodi="http://sodipodi.sourceforge.net/DTD/sodipodi-0.dtd"
   xmlns:inkscape="http://www.inkscape.org/namespaces/inkscape"
   version="1.1"
   width="32"
   height="32"
   viewBox="0 0 32 32"
   id="svg2"
   inkscape:version="0.91 r13725"
   sodipodi:docname="xing-blue.svg">
  <metadata
     id="metadata12">
    <rdf:RDF>
      <cc:Work
         rdf:about="">
        <dc:format>image/svg+xml</dc:format>
        <dc:type
           rdf:resource="http://purl.org/dc/dcmitype/StillImage" />
        <dc:title>facebook2</dc:title>
      </cc:Work>
    </rdf:RDF>
  </metadata>
  <defs
     id="defs10" />
  <sodipodi:namedview
     pagecolor="#ffffff"
     bordercolor="#666666"
     borderopacity="1"
     objecttolerance="10"
     gridtolerance="10"
     guidetolerance="10"
     inkscape:pageopacity="0"
     inkscape:pageshadow="2"
     inkscape:window-width="1875"
     inkscape:window-height="1056"
     id="namedview8"
     showgrid="false"
     inkscape:zoom="14.75"
     inkscape:cx="16.956427"
     inkscape:cy="18.035835"
     inkscape:window-x="45"
     inkscape:window-y="47"
     inkscape:window-maximized="1"
     inkscape:current-layer="svg2"
     fit-margin-top="0"
     fit-margin-left="0"
     fit-margin-right="0"
     fit-margin-bottom="0" />
  <title
     id="title4">facebook2</title>
  <style
     id="style4192"
     type="text/css">
	.st0{fill:#268F8A;}
</style>
  <path
     inkscape:connector-curvature="0"
     d="M 29,0 3.0000001,0 C 1.35,0 0,1.35 0,3 l 0,26 c 0,1.65 1.35,3 3.0000001,3 L 29,32 c 1.65,0 3,-1.35 3,-3 L 32,3 C 32,1.35 30.65,0 29,0 Z m -19.2309999,20.813 -3.456,0 c -0.206,0 -0.362,-0.094 -0.45,-0.238 -0.094,-0.15 -0.094,-0.337 0,-0.531 l 3.675,-6.488 c 0.006,-0.006 0.006,-0.012 0,-0.019 l -2.338,-4.0500005 c -0.094,-0.194 -0.112,-0.381 -0.019,-0.531 0.088,-0.144 0.263,-0.219 0.475,-0.219 l 3.4619999,0 c 0.531,0 0.794,0.344 0.963,0.65 0,0 2.363,4.1250005 2.381,4.1500005 -0.137,0.25 -3.737,6.606 -3.737,6.606 -0.188,0.325 -0.438,0.669 -0.9559999,0.669 z M 26.137,4.756 18.475,18.306 c -0.006,0.006 -0.006,0.019 0,0.025 l 4.881,8.913 c 0.094,0.194 0.1,0.387 0.006,0.538 -0.087,0.144 -0.25,0.219 -0.462,0.219 l -3.456,0 c -0.531,0 -0.794,-0.35 -0.969,-0.656 0,0 -4.906,-9 -4.919,-9.025 0.244,-0.431 7.7,-13.656 7.7,-13.656 0.188,-0.331 0.413,-0.656 0.925,-0.656 l 3.506,0 c 0.206,0 0.375,0.081 0.462,0.219 0.087,0.144 0.087,0.338 -0.012,0.531 z"
     id="path6"
     style="fill:#002f55;fill-opacity:1" />
</svg>
